<svg width="200" height="199" viewBox="0 0 200 199" fill="none" xmlns="http://www.w3.org/2000/svg">
<g clip-path="url(#clip0_246_6044)">
<path d="M100.009 85.725H99.9911C94.3917 85.7198 89.0117 87.9012 84.997 91.8043C80.9823 95.7075 78.6502 101.024 78.4975 106.621V106.783C78.6821 115.622 80.9749 123.336 85.1271 129.093C89.1005 134.599 94.5866 137.83 100.179 137.958C100.296 137.961 100.414 137.962 100.532 137.962C105.88 137.962 110.832 135.178 114.512 130.091C118.49 124.593 120.84 116.799 121.498 106.927C121.505 106.826 121.507 106.724 121.503 106.623C121.351 101.025 119.019 95.7081 115.004 91.8046C110.989 87.9011 105.609 85.7197 100.009 85.725ZM100.32 131.739C92.9161 131.571 85.0657 122.175 84.7155 106.736C84.8462 102.776 86.509 99.0208 89.3537 96.2622C92.1983 93.5037 96.0027 91.9571 99.9652 91.9482C103.928 91.9393 107.739 93.4689 110.596 96.2147C113.453 98.9605 115.133 102.708 115.281 106.668C113.995 125.393 106.417 131.867 100.32 131.739H100.32ZM195.215 160.088C194.826 159.487 194.242 159.04 193.562 158.82C187.717 156.86 182.133 154.191 176.937 150.873C176.583 150.652 176.188 150.504 175.776 150.439C175.364 150.373 174.942 150.392 174.537 150.493C174.132 150.594 173.751 150.775 173.418 151.026C173.084 151.278 172.805 151.593 172.596 151.955L166.919 161.788L161.242 151.955C161.033 151.593 160.754 151.278 160.42 151.026C160.087 150.775 159.706 150.594 159.301 150.493C158.896 150.392 158.475 150.373 158.062 150.439C157.65 150.504 157.255 150.652 156.901 150.873C152.143 153.897 147.069 156.39 141.768 158.308C140.824 155.493 139.531 152.808 137.917 150.315C137.528 149.715 136.944 149.267 136.264 149.047C128.78 146.629 121.005 142.914 113.153 138.004C112.799 137.782 112.404 137.635 111.991 137.569C111.579 137.504 111.158 137.522 110.752 137.623C110.347 137.724 109.967 137.906 109.633 138.157C109.3 138.408 109.02 138.724 108.812 139.086L100 154.348L91.1876 139.086C90.9789 138.724 90.6995 138.408 90.366 138.157C90.0326 137.906 89.6519 137.724 89.2468 137.623C88.8417 137.522 88.4204 137.504 88.008 137.569C87.5956 137.635 87.2006 137.782 86.8466 138.004C78.9954 142.913 71.2196 146.629 63.7358 149.047C63.0552 149.267 62.4713 149.715 62.0823 150.315C60.4688 152.808 59.175 155.493 58.2314 158.308C52.9306 156.39 47.856 153.897 43.0984 150.873C42.7444 150.652 42.3495 150.504 41.9371 150.439C41.5247 150.373 41.1034 150.392 40.6983 150.493C40.2932 150.594 39.9125 150.775 39.5791 151.026C39.2456 151.278 38.9661 151.593 38.7574 151.955L33.08 161.788L27.4031 151.955C27.1943 151.593 26.9149 151.278 26.5814 151.026C26.2479 150.775 25.8673 150.594 25.4622 150.493C25.057 150.392 24.6357 150.373 24.2234 150.439C23.811 150.504 23.416 150.652 23.062 150.873C17.8658 154.191 12.2826 156.86 6.43735 158.82C5.75681 159.04 5.17287 159.487 4.78394 160.088C2.73962 163.245 1.38645 166.8 0.81331 170.517C0.240174 174.235 0.46004 178.032 1.45847 181.659C1.57364 182.077 1.77491 182.466 2.04935 182.801C2.32379 183.136 2.66533 183.41 3.05202 183.606C12.7346 188.514 22.9081 190.968 33.082 190.968C43.2559 190.968 53.4297 188.514 63.1123 183.606C63.362 183.478 63.5933 183.318 63.7999 183.128C75.1704 188.291 87.5136 190.962 100.001 190.962C112.489 190.962 124.832 188.291 136.203 183.128C136.409 183.318 136.641 183.479 136.891 183.606C146.575 188.515 156.746 190.969 166.921 190.969C177.097 190.968 187.27 188.514 196.951 183.606C197.338 183.41 197.679 183.136 197.953 182.801C198.227 182.466 198.428 182.077 198.543 181.659C199.541 178.032 199.761 174.235 199.187 170.517C198.614 166.8 197.26 163.245 195.215 160.088ZM7.13696 178.689C6.13273 173.793 6.95638 168.699 9.45228 164.369C14.3712 162.648 19.1103 160.45 23.6023 157.808L30.3889 169.561C30.6618 170.034 31.0543 170.426 31.527 170.699C31.9996 170.972 32.5358 171.116 33.0816 171.116C33.6274 171.116 34.1635 170.972 34.6362 170.699C35.1089 170.426 35.5014 170.034 35.7743 169.561L42.5597 157.809C47.0707 160.46 51.8311 162.663 56.7723 164.384C56.0433 169.273 56.3447 174.26 57.6573 179.025C57.6814 179.113 57.7113 179.197 57.7424 179.282C41.3105 186.736 23.4942 186.542 7.13696 178.689ZM63.3199 176.053C61.6668 168.73 62.8899 161.052 66.7363 154.605C73.9394 152.115 80.8627 148.88 87.3934 144.951L97.3073 162.122C97.5802 162.594 97.9727 162.987 98.4454 163.26C98.9181 163.532 99.4542 163.676 100 163.676C100.546 163.676 101.082 163.532 101.555 163.26C102.027 162.987 102.42 162.594 102.693 162.122L112.606 144.951C119.137 148.88 126.061 152.115 133.264 154.605C137.11 161.052 138.333 168.73 136.68 176.053C112.972 187.618 87.0281 187.619 63.3199 176.053ZM192.864 178.689C176.505 186.543 158.69 186.735 142.259 179.281C142.29 179.197 142.32 179.113 142.344 179.025C143.657 174.26 143.958 169.273 143.23 164.384C148.171 162.663 152.931 160.46 157.442 157.809L164.228 169.561C164.501 170.034 164.893 170.426 165.366 170.699C165.838 170.972 166.375 171.116 166.92 171.116C167.466 171.116 168.002 170.972 168.475 170.699C168.948 170.426 169.34 170.034 169.613 169.561L176.399 157.809C180.89 160.451 185.629 162.648 190.548 164.369C193.044 168.699 193.867 173.793 192.863 178.689H192.864ZM166.929 112.711H166.911C162.618 112.708 158.493 114.381 155.415 117.374C152.337 120.366 150.549 124.443 150.431 128.734V128.896C150.57 135.499 152.293 141.277 155.415 145.603C158.462 149.826 162.697 152.305 167.033 152.405C167.119 152.405 167.204 152.408 167.29 152.408C174.066 152.408 182.254 146.314 183.407 129.039C183.414 128.938 183.415 128.836 183.412 128.735C183.295 124.443 181.507 120.366 178.428 117.373C175.349 114.38 171.223 112.707 166.929 112.711ZM167.173 146.187C162.189 146.073 156.9 139.56 156.649 128.85C156.742 126.194 157.86 123.677 159.769 121.828C161.678 119.978 164.229 118.941 166.887 118.932C169.545 118.923 172.102 119.944 174.023 121.781C175.944 123.618 177.079 126.128 177.189 128.783C176.34 140.943 171.555 146.285 167.172 146.187H167.173ZM33.0897 112.711H33.0707C28.7775 112.708 24.6526 114.381 21.5745 117.374C18.4964 120.366 16.7083 124.443 16.591 128.734V128.896C16.7294 135.499 18.4528 141.277 21.5746 145.603C24.6218 149.826 28.8563 152.305 33.1927 152.405C33.2786 152.405 33.3638 152.408 33.4497 152.408C40.2262 152.408 48.4135 146.314 49.5667 129.039C49.5737 128.938 49.5753 128.836 49.5722 128.735C49.455 124.443 47.6667 120.366 44.5879 117.373C41.5092 114.38 37.3836 112.707 33.0897 112.711ZM33.4535 146.188H33.3331C28.3487 146.074 23.0601 139.561 22.8086 128.851C22.9016 126.195 24.02 123.678 25.929 121.829C27.838 119.98 30.3891 118.942 33.0469 118.933C35.7047 118.924 38.2625 119.946 40.1835 121.782C42.1045 123.619 43.2392 126.129 43.3495 128.784C42.5084 140.831 37.8036 146.188 33.4535 146.188ZM137.74 35.4437C137.567 34.9094 137.252 34.4322 136.829 34.0627C136.406 33.6931 135.89 33.4451 135.338 33.3448L113.333 29.3543L102.738 9.65955C102.472 9.16497 102.077 8.75169 101.595 8.46362C101.113 8.17555 100.562 8.02344 100 8.02344C99.4384 8.02344 98.8872 8.17555 98.4051 8.46362C97.923 8.75169 97.5279 9.16497 97.2618 9.65955L86.6686 29.3543L64.6616 33.3452C64.109 33.4455 63.594 33.6936 63.1711 34.0631C62.7482 34.4327 62.4333 34.9098 62.2598 35.4439C62.0863 35.978 62.0607 36.5491 62.1857 37.0966C62.3106 37.6441 62.5816 38.1475 62.9697 38.5534L78.4264 54.7159L75.4216 76.8792C75.3461 77.4358 75.4228 78.0024 75.6435 78.5189C75.8642 79.0354 76.2208 79.4825 76.6752 79.8126C77.1296 80.1427 77.665 80.3436 78.2244 80.3939C78.7838 80.4442 79.3464 80.342 79.8524 80.0982L100 70.3884L120.148 80.0947C120.654 80.3385 121.217 80.4407 121.776 80.3904C122.336 80.3401 122.871 80.1392 123.326 79.8091C123.78 79.479 124.137 79.0319 124.357 78.5154C124.578 77.9989 124.655 77.4323 124.579 76.8757L121.574 54.7144L137.031 38.5519C137.418 38.146 137.689 37.6428 137.814 37.0956C137.939 36.5484 137.913 35.9775 137.74 35.4437ZM116.044 51.4989C115.721 51.8364 115.479 52.2423 115.334 52.6864C115.19 53.1305 115.147 53.6014 115.21 54.0641L117.64 71.9819L101.349 64.1342C100.929 63.9315 100.467 63.8261 100 63.8261C99.5327 63.8261 99.0715 63.9315 98.6505 64.1342L82.3605 71.9819L84.7901 54.0641C84.8526 53.6014 84.8101 53.1305 84.6657 52.6864C84.5213 52.2423 84.2787 51.8364 83.956 51.4989L71.4583 38.4325L89.2505 35.2066C89.7102 35.1231 90.1452 34.9372 90.5232 34.6625C90.9012 34.3878 91.2124 34.0315 91.4337 33.62L100 17.6957L108.566 33.62C108.788 34.0314 109.099 34.3877 109.477 34.6623C109.855 34.9369 110.29 35.1228 110.75 35.2062L128.542 38.4321L116.044 51.4989ZM193.973 79.048C193.799 78.5138 193.484 78.0366 193.061 77.6671C192.638 77.2975 192.123 77.0494 191.571 76.9491L176.781 74.2673L169.658 61.0315C169.392 60.5369 168.997 60.1236 168.514 59.8356C168.032 59.5475 167.481 59.3954 166.92 59.3954C166.358 59.3954 165.807 59.5475 165.325 59.8356C164.843 60.1236 164.447 60.5369 164.181 61.0315L157.06 74.2693L142.27 76.9511C141.717 77.0514 141.202 77.2994 140.779 77.6689C140.356 78.0384 140.041 78.5155 139.868 79.0496C139.694 79.5837 139.668 80.1549 139.793 80.7024C139.918 81.2499 140.189 81.7534 140.577 82.1593L150.967 93.0227L148.945 107.918C148.87 108.474 148.947 109.041 149.167 109.557C149.388 110.074 149.745 110.521 150.199 110.851C150.654 111.181 151.189 111.382 151.748 111.432C152.308 111.483 152.87 111.381 153.376 111.137L166.918 104.613L180.461 111.137C180.967 111.381 181.529 111.483 182.089 111.432C182.648 111.382 183.183 111.181 183.638 110.851C184.092 110.521 184.449 110.074 184.669 109.557C184.89 109.041 184.967 108.474 184.891 107.918L182.87 93.0227L193.259 82.1593C193.647 81.7536 193.919 81.2503 194.044 80.7028C194.17 80.1552 194.144 79.5839 193.971 79.0495L193.973 79.048ZM177.345 89.806C177.022 90.1435 176.779 90.5494 176.635 90.9935C176.49 91.4376 176.448 91.9085 176.51 92.3713L177.955 103.023L168.27 98.3591C167.849 98.1564 167.388 98.0511 166.921 98.0511C166.454 98.0511 165.993 98.1564 165.572 98.3591L155.888 103.023L157.332 92.3713C157.394 91.9085 157.352 91.4375 157.207 90.9934C157.063 90.5493 156.82 90.1435 156.497 89.806L149.068 82.0369L159.645 80.1195C160.105 80.0361 160.54 79.8501 160.918 79.5755C161.296 79.3008 161.607 78.9445 161.828 78.533L166.92 69.0665L172.012 78.533C172.233 78.9444 172.544 79.3007 172.922 79.5754C173.3 79.85 173.735 80.036 174.195 80.1195L184.772 82.0369L177.345 89.806ZM60.1324 79.0495C59.9588 78.5153 59.6438 78.0381 59.2209 77.6685C58.7979 77.299 58.2827 77.0509 57.73 76.9507L42.9399 74.2689L35.8186 61.0315C35.5525 60.5369 35.1574 60.1236 34.6753 59.8356C34.1932 59.5475 33.642 59.3954 33.0804 59.3954C32.5188 59.3954 31.9677 59.5475 31.4855 59.8356C31.0034 60.1236 30.6083 60.5369 30.3422 61.0315L23.221 74.2693L8.43046 76.9511C7.87792 77.0514 7.36286 77.2995 6.93999 77.669C6.51711 78.0385 6.2022 78.5157 6.02869 79.0498C5.85519 79.5839 5.82957 80.155 5.95456 80.7025C6.07955 81.25 6.35048 81.7534 6.73857 82.1593L17.1274 93.0227L15.1063 107.918C15.0308 108.474 15.1075 109.041 15.3282 109.557C15.549 110.074 15.9055 110.521 16.3599 110.851C16.8143 111.181 17.3497 111.382 17.9091 111.432C18.4685 111.483 19.0311 111.381 19.5372 111.137L33.0793 104.613L46.6214 111.137C47.1274 111.381 47.69 111.483 48.2494 111.432C48.8088 111.382 49.3442 111.181 49.7986 110.851C50.253 110.521 50.6095 110.074 50.8303 109.557C51.051 109.041 51.1277 108.474 51.0522 107.918L49.0311 93.0227L59.4199 82.1593C59.8085 81.7536 60.0799 81.2503 60.2054 80.7028C60.3308 80.1552 60.3056 79.5839 60.1324 79.0495ZM43.5042 89.8076C43.1814 90.1451 42.9388 90.5509 42.7943 90.995C42.6498 91.4391 42.6073 91.91 42.6697 92.3728L44.114 103.025L34.4299 98.3607C34.009 98.158 33.5478 98.0527 33.0806 98.0527C32.6134 98.0527 32.1522 98.158 31.7313 98.3607L22.0472 103.025L23.4911 92.3728C23.5536 91.91 23.5111 91.4391 23.3667 90.995C23.2223 90.5509 22.9798 90.1451 22.657 89.8076L15.2276 82.0384L25.8045 80.1211C26.2642 80.0376 26.6992 79.8516 27.0773 79.5769C27.4553 79.3023 27.7666 78.946 27.988 78.5345L33.0796 69.068L38.1712 78.5345C38.3926 78.946 38.7038 79.3023 39.0817 79.577C39.4597 79.8517 39.8947 80.0377 40.3544 80.1211L50.9313 82.0384L43.5042 89.8076Z" fill="white"/>
</g>
<defs>
<clipPath id="clip0_246_6044">
<rect width="199" height="199" fill="white" transform="translate(0.5)"/>
</clipPath>
</defs>
</svg>
