<svg width="200" height="199" viewBox="0 0 200 199" fill="none" xmlns="http://www.w3.org/2000/svg">
<path d="M121.765 139.922C116.623 139.922 112.437 144.107 112.437 149.25C112.437 154.393 116.623 158.578 121.765 158.578C126.908 158.578 131.094 154.393 131.094 149.25C131.094 144.107 126.908 139.922 121.765 139.922ZM121.765 152.359C120.941 152.359 120.15 152.032 119.567 151.449C118.984 150.866 118.656 150.075 118.656 149.25C118.656 148.425 118.984 147.634 119.567 147.051C120.15 146.468 120.941 146.141 121.765 146.141C122.59 146.141 123.381 146.468 123.964 147.051C124.547 147.634 124.875 148.425 124.875 149.25C124.875 150.075 124.547 150.866 123.964 151.449C123.381 152.032 122.59 152.359 121.765 152.359ZM22.2686 177.234H47.1436V152.359H22.2686V177.234ZM28.4873 158.578H40.9248V171.016H28.4873V158.578Z" fill="white"/>
<path d="M196.391 36.0252L163.475 3.10938H72.0156V27.9844H40.9219V31.0938C40.9219 39.6663 33.9475 46.6406 25.375 46.6406C16.8025 46.6406 9.82812 39.6663 9.82812 31.0938C9.82812 22.5212 16.8025 15.5469 25.375 15.5469C30.9066 15.5469 36.0681 18.5257 38.8448 23.3234L44.224 20.2078C42.3076 16.9048 39.5586 14.1619 36.2512 12.2529C32.9439 10.3439 29.1938 9.33543 25.375 9.32812C13.3759 9.32812 3.60938 19.0947 3.60938 31.0938C3.60938 43.0928 13.3759 52.8594 25.375 52.8594C36.3231 52.8594 45.4056 44.7377 46.9199 34.2031H72.0156V77.7344H40.9219V80.8438C40.9219 89.4163 33.9475 96.3906 25.375 96.3906C16.8025 96.3906 9.82812 89.4163 9.82812 80.8438C9.82812 72.2712 16.8025 65.2969 25.375 65.2969C30.9066 65.2969 36.0681 68.2757 38.8448 73.0734L44.224 69.9578C42.3076 66.6548 39.5586 63.9119 36.2512 62.0029C32.9439 60.0939 29.1938 59.0854 25.375 59.0781C13.3759 59.0781 3.60938 68.8447 3.60938 80.8438C3.60938 92.8428 13.3759 102.609 25.375 102.609C36.3231 102.609 45.4056 94.4877 46.9199 83.9531H72.0156V103.841L59.5812 95.7936L3.61248 132.009V139.922H9.83123V195.891H159.078V171.016H196.391V36.0252ZM177.734 40.4219V52.8594H90.6719V21.7656H159.078V40.4219H177.734ZM165.297 34.2031V13.7248L185.775 34.2031H165.297ZM171.264 147.092C170.983 145.899 170.468 144.773 169.749 143.78C169.03 142.786 168.121 141.945 167.075 141.306L148.326 129.77C149.623 127.208 151.605 125.056 154.052 123.555C156.5 122.053 159.316 121.261 162.188 121.266C170.76 121.266 177.734 128.24 177.734 136.812C177.734 141.881 175.259 146.346 171.497 149.188C171.498 148.483 171.42 147.78 171.264 147.092ZM163.814 146.598C164.164 146.809 164.468 147.089 164.708 147.42C164.949 147.751 165.12 148.127 165.213 148.526C165.31 148.923 165.326 149.337 165.261 149.741C165.196 150.145 165.051 150.532 164.834 150.879C164.391 151.569 163.698 152.06 162.901 152.249C162.104 152.439 161.264 152.312 160.558 151.896L121.766 128.025L82.9731 151.899C82.2671 152.316 81.4273 152.443 80.6296 152.254C79.832 152.065 79.1385 151.575 78.6946 150.886C78.253 150.167 78.1224 149.353 78.3183 148.532C78.5142 147.711 78.9962 147.042 79.7144 146.604L120.139 121.726C120.63 121.431 121.191 121.276 121.763 121.276C122.334 121.276 122.895 121.431 123.386 121.726L163.814 146.598ZM88.8094 133.703H62.6906V105.215L97.9882 128.053L88.8094 133.703ZM56.4719 105.215V133.703H12.4462L56.4719 105.215ZM16.05 139.922H78.7039L76.4589 141.302C75.4126 141.941 74.5036 142.781 73.7846 143.774C73.0656 144.767 72.551 145.893 72.2706 147.086C71.854 148.834 71.9545 150.665 72.5598 152.356H53.3625V177.231H78.2375V157.978C79.2263 158.326 80.2555 158.575 81.3469 158.575C82.4134 158.575 83.4581 158.373 84.4531 158.018V189.672H16.05V139.922ZM72.0187 158.578V171.016H59.5812V158.578H72.0187ZM134.203 189.672H109.328V171.016H134.203V189.672ZM140.422 189.672V164.797H103.109V189.672H90.6719V154.464L121.766 135.326L152.859 154.461V189.672H140.422ZM159.078 164.797V158.022C160.074 158.382 161.125 158.57 162.184 158.578C174.183 158.578 183.953 148.812 183.953 136.812C183.953 124.813 174.187 115.047 162.188 115.047C158.256 115.043 154.397 116.107 151.023 118.126C147.649 120.146 144.888 123.044 143.034 126.511L126.644 116.427C125.171 115.54 123.483 115.07 121.763 115.07C120.042 115.07 118.354 115.54 116.881 116.427L103.853 124.443L78.2344 107.867V9.32812H159.078V15.5469H84.4531V59.0781H183.953V40.4219H190.172V164.797H159.078Z" fill="white"/>
<path d="M22.2657 82.6659L18.2453 78.6455L13.8486 83.0422L22.2657 91.4592L36.9015 76.8234L32.5049 72.4268L22.2657 82.6659ZM22.2657 32.9159L18.2453 28.8955L13.8486 33.2922L22.2657 41.7092L36.9015 27.0734L32.5049 22.6768L22.2657 32.9159ZM84.4532 83.9532H103.109V65.297H84.4532V83.9532ZM90.672 71.5157H96.8907V77.7345H90.672V71.5157ZM109.328 65.297H115.547V71.5157H109.328V65.297ZM121.766 65.297H183.953V71.5157H121.766V65.297ZM109.328 77.7345H183.953V83.9532H109.328V77.7345ZM84.4532 108.828H103.109V90.172H84.4532V108.828ZM90.672 96.3907H96.8907V102.609H90.672V96.3907ZM177.734 102.609H183.953V108.828H177.734V102.609ZM109.328 102.609H171.516V108.828H109.328V102.609ZM109.328 90.172H183.953V96.3907H109.328V90.172Z" fill="white"/>
</svg>
